<svg width="39" height="39" viewBox="0 0 39 39" fill="none" xmlns="http://www.w3.org/2000/svg">
<path d="M21.125 34.125H14.625V14.625H21.125V17.875C21.8093 17.0044 22.6777 16.2961 23.6681 15.8008C24.6584 15.3055 25.7461 15.0355 26.8531 15.0101C28.7891 15.0209 30.6419 15.7989 32.0051 17.1737C33.3683 18.5485 34.1306 20.4077 34.125 22.3438V34.125H27.625V23.1562C27.4993 22.2781 27.0606 21.4748 26.3897 20.8944C25.7188 20.3139 24.8608 19.9953 23.9736 19.9972C23.5766 20.0098 23.1861 20.1024 22.8258 20.2696C22.4654 20.4368 22.1425 20.675 21.8765 20.97C21.6104 21.265 21.4067 21.6108 21.2776 21.9864C21.1485 22.3621 21.0966 22.76 21.125 23.1562V34.125ZM11.375 34.125H4.875V14.625H11.375V34.125ZM8.125 11.375C7.26305 11.375 6.4364 11.0326 5.8269 10.4231C5.21741 9.8136 4.875 8.98695 4.875 8.125C4.875 7.26305 5.21741 6.4364 5.8269 5.8269C6.4364 5.21741 7.26305 4.875 8.125 4.875C8.98695 4.875 9.8136 5.21741 10.4231 5.8269C11.0326 6.4364 11.375 7.26305 11.375 8.125C11.375 8.98695 11.0326 9.8136 10.4231 10.4231C9.8136 11.0326 8.98695 11.375 8.125 11.375Z" fill="black"/>
</svg>
