<svg width="39" height="39" viewBox="0 0 39 39" fill="none" xmlns="http://www.w3.org/2000/svg">
<path d="M36.4974 9.75C35.2462 10.3187 33.8974 10.6925 32.4999 10.8713C33.9299 10.01 35.0349 8.645 35.5549 7.00375C34.2062 7.81625 32.7112 8.385 31.1349 8.71C29.8512 7.3125 28.0474 6.5 25.9999 6.5C22.1812 6.5 19.0612 9.62 19.0612 13.4712C19.0612 14.0237 19.1262 14.56 19.2399 15.0638C13.4549 14.7713 8.30369 11.9925 4.87494 7.78375C4.27369 8.8075 3.93244 10.01 3.93244 11.2775C3.93244 13.6988 5.15119 15.8438 7.03619 17.0625C5.88244 17.0625 4.80994 16.7375 3.86744 16.25V16.2987C3.86744 19.6787 6.27244 22.5062 9.45744 23.14C8.43487 23.4198 7.36135 23.4588 6.32119 23.2538C6.76255 24.639 7.62694 25.8512 8.79284 26.7198C9.95875 27.5884 11.3675 28.0697 12.8212 28.0963C10.3571 30.047 7.30269 31.1014 4.15994 31.0862C3.60744 31.0862 3.05494 31.0537 2.50244 30.9887C5.58994 32.9712 9.26244 34.125 13.1949 34.125C25.9999 34.125 33.0362 23.4975 33.0362 14.2837C33.0362 13.975 33.0362 13.6825 33.0199 13.3737C34.3849 12.3987 35.5549 11.1638 36.4974 9.75V9.75Z" fill="black"/>
</svg>
